<?xml version="1.0" encoding="utf-8"?>
<!-- Generator: Adobe Illustrator 22.1.0, SVG Export Plug-In . SVG Version: 6.00 Build 0)  -->
<svg version="1.1" id="Layer_1" xmlns="http://www.w3.org/2000/svg" xmlns:xlink="http://www.w3.org/1999/xlink" x="0px" y="0px"
	 viewBox="0 0 512.1 512.1" style="enable-background:new 0 0 512.1 512.1;" xml:space="preserve">
<style type="text/css">
	.st0{fill:#139A43;}
</style>
<g>
	<g>
		<path class="st0" d="M0,435.2c0,9.6,6.4,19,15.7,21.5c2.2,0.6,4.3,0.9,6.5,0.9c7.1,0,13.8-3.2,17.5-9.6
			c84.5-142,196.2-146.2,237.7-142v109.8c0,8.6,5.2,16.4,13.2,19.7c8,3.3,17.2,1.5,23.3-4.6l192-192c8.3-8.3,8.3-21.8,0-30.2
			l-192-192c-6.1-6.1-15.3-8-23.3-4.6c-8,3.3-13.2,11.1-13.2,19.7v85.5c-121.7,5.7-226.9,87.4-261.5,204.2
			C4.9,358.4-0.4,396.6,0,435.2z"/>
	</g>
</g>
</svg>
