<?xml version="1.0" encoding="utf-8"?><svg xmlns="http://www.w3.org/2000/svg" xmlns:xlink="http://www.w3.org/1999/xlink" width="751" height="732" preserveAspectRatio="xMidYMid" viewBox="0 0 1127 1098" style="z-index:1;margin-right:-2px;display:block;background-repeat-y:initial;background-repeat-x:initial;animation-play-state:running" ><g transform="" style="animation-play-state:running" ><linearGradient id="lg-0.4092680188954194" x1="0" x2="1" y1="0" y2="0" style="animation-play-state:running" ><stop stop-color="#d6eadf" offset="0" style="animation-play-state:running" ></stop>

  
<stop stop-color="#809bce" offset="1" style="animation-play-state:running" ></stop></linearGradient>
<path d="M0 0L0 841.3427734375Q112.69999694824219 545.897216796875 225.39999389648438 508.2078552246094T450.79998779296875 238.62008666992188T676.2000122070312 236.26654052734375T901.5999755859375 -82.10053253173828T1127 -297.8327941894531L1127 0Z" fill="url(#lg-0.4092680188954194)" opacity="0.9" style="opacity:0.3199999928474426;animation-play-state:running" ></path>
<path d="M0 0L0 749.4652099609375Q112.69999694824219 635.1744995117188 225.39999389648438 602.5881958007812T450.79998779296875 446.3537292480469T676.2000122070312 161.02398681640625T901.5999755859375 19.040075302124023T1127 -163.09912109375L1127 0Z" fill="url(#lg-0.4092680188954194)" opacity="0.32" style="opacity:0.3199999928474426;animation-play-state:running" ></path>
<path d="M0 0L0 687.619140625Q112.69999694824219 652.6849365234375 225.39999389648438 618.3428955078125T450.79998779296875 317.08172607421875T676.2000122070312 203.89576721191406T901.5999755859375 -67.60987854003906T1127 -340.18524169921875L1127 0Z" fill="url(#lg-0.4092680188954194)" opacity="0.32" style="opacity:0.3199999928474426;animation-play-state:running" ></path>
<path d="M0 0L0 691.7005615234375Q112.69999694824219 536.3741455078125 225.39999389648438 504.46380615234375T450.79998779296875 486.1946716308594T676.2000122070312 166.06324768066406T901.5999755859375 146.04510498046875T1127 -161.9044647216797L1127 0Z" fill="url(#lg-0.4092680188954194)" opacity="0.32" style="opacity:0.3199999928474426;animation-play-state:running" ></path>
<path d="M0 0L0 775.7449340820312Q112.69999694824219 614.0380249023438 225.39999389648438 584.7571411132812T450.79998779296875 446.68963623046875T676.2000122070312 336.7059631347656T901.5999755859375 107.42868041992188T1127 -190.5498809814453L1127 0Z" fill="url(#lg-0.4092680188954194)" opacity="0.32" style="opacity:0.3199999928474426;animation-play-state:running" ></path></g></svg>